<svg width="21" height="20" viewBox="0 0 21 20" fill="none" xmlns="http://www.w3.org/2000/svg">
<g clip-path="url(#clip0_266_29233)">
<path d="M0.333496 4.52506C0.333496 3.60459 1.07969 2.8584 2.00016 2.8584H18.6668C19.5873 2.8584 20.3335 3.60459 20.3335 4.52507V15.4774C20.3335 16.3979 19.5873 17.1441 18.6668 17.1441H2.00016C1.07969 17.1441 0.333496 16.3979 0.333496 15.4774V4.52506Z" fill="white"/>
<mask id="mask0_266_29233" style="mask-type:alpha" maskUnits="userSpaceOnUse" x="0" y="2" width="21" height="16">
<path d="M0.333496 4.52506C0.333496 3.60459 1.07969 2.8584 2.00016 2.8584H18.6668C19.5873 2.8584 20.3335 3.60459 20.3335 4.52507V15.4774C20.3335 16.3979 19.5873 17.1441 18.6668 17.1441H2.00016C1.07969 17.1441 0.333496 16.3979 0.333496 15.4774V4.52506Z" fill="white"/>
</mask>
<g mask="url(#mask0_266_29233)">
<path d="M0.333496 2.8584H20.3335V17.1441H0.333496V2.8584Z" fill="#111827"/>
<path fill-rule="evenodd" clip-rule="evenodd" d="M3.66683 5.71554L0.333496 2.8584H0.809687L4.14302 5.23935H5.0954L8.90492 2.8584V3.19164C8.90492 3.28135 8.8616 3.36553 8.7886 3.41768L5.57159 5.71554V6.66792L8.58169 9.24801C8.6927 9.34316 8.62541 9.52506 8.4792 9.52506C8.44638 9.52506 8.41438 9.51481 8.38767 9.49573L5.0954 7.14411H4.14302L0.333496 9.52506V9.04887L3.66683 6.66792V5.71554Z" fill="#FF2E3B"/>
<path fill-rule="evenodd" clip-rule="evenodd" d="M3.66669 5.71595V6.66833L0.333353 9.04928V9.52547L4.14288 7.14452H5.09526L8.38752 9.49614C8.41423 9.51521 8.44624 9.52547 8.47906 9.52547C8.62527 9.52547 8.69256 9.34357 8.58155 9.24841L5.57145 6.66833V5.71595L8.78846 3.41808C8.86146 3.36594 8.90478 3.28175 8.90478 3.19205V2.85881L5.09526 5.23976H4.14288L0.809543 2.85881H0.333353L3.66669 5.71595ZM4.32091 4.6842L0.987579 2.30325H-1.16846L3.11113 5.97147V6.38243L-0.222203 8.76338V10.5278L4.30221 7.70007H4.91722L8.06461 9.94821C8.18554 10.0346 8.33044 10.081 8.47906 10.081C9.14105 10.081 9.44572 9.25742 8.9431 8.82661L6.127 6.41281V6.00185L9.11137 3.87016C9.33037 3.71373 9.46034 3.46117 9.46034 3.19205V1.85645L4.93593 4.6842H4.32091Z" fill="white"/>
<path fill-rule="evenodd" clip-rule="evenodd" d="M0.333496 5.23935V7.14411H3.66683V9.4457C3.66683 9.75252 3.91556 10.0013 4.22238 10.0013H5.01603C5.32286 10.0013 5.57159 9.75252 5.57159 9.4457V7.14411H8.82556C9.13238 7.14411 9.38111 6.89538 9.38111 6.58856V5.79491C9.38111 5.48808 9.13238 5.23935 8.82556 5.23935H5.57159V2.8584H3.66683V5.23935H0.333496Z" fill="url(#paint0_linear_266_29233)"/>
<path fill-rule="evenodd" clip-rule="evenodd" d="M0.333496 5.71554H4.14302V5.23935V2.8584H5.0954V5.23935V5.71554H8.90492V6.66792H5.0954V7.14411V9.52506H4.14302V7.14411V6.66792H0.333496V5.71554Z" fill="url(#paint1_linear_266_29233)"/>
<path fill-rule="evenodd" clip-rule="evenodd" d="M4.61915 14.5252L3.77946 14.9666L3.93982 14.0316L3.2605 13.3694L4.1993 13.233L4.61915 12.3823L5.039 13.233L5.9778 13.3694L5.29848 14.0316L5.45884 14.9666L4.61915 14.5252Z" fill="white"/>
<path fill-rule="evenodd" clip-rule="evenodd" d="M14.6192 15.2395L13.9458 15.4367L14.143 14.7633L13.9458 14.0898L14.6192 14.2871L15.2927 14.0898L15.0954 14.7633L15.2927 15.4367L14.6192 15.2395Z" fill="white"/>
<path fill-rule="evenodd" clip-rule="evenodd" d="M14.6192 6.19162L13.9458 6.38886L14.143 5.71543L13.9458 5.04199L14.6192 5.23924L15.2927 5.04199L15.0954 5.71543L15.2927 6.38886L14.6192 6.19162Z" fill="white"/>
<path fill-rule="evenodd" clip-rule="evenodd" d="M17.4764 9.04904L16.803 9.24628L17.0002 8.57285L16.803 7.89941L17.4764 8.09666L18.1498 7.89941L17.9526 8.57285L18.1498 9.24628L17.4764 9.04904Z" fill="white"/>
<path fill-rule="evenodd" clip-rule="evenodd" d="M11.7621 10.0012L11.0886 10.1984L11.2859 9.525L11.0886 8.85156L11.7621 9.04881L12.4355 8.85156L12.2382 9.525L12.4355 10.1984L11.7621 10.0012Z" fill="white"/>
<path fill-rule="evenodd" clip-rule="evenodd" d="M16.0479 11.1915L15.7112 11.2901L15.8098 10.9534L15.7112 10.6167L16.0479 10.7153L16.3846 10.6167L16.286 10.9534L16.3846 11.2901L16.0479 11.1915Z" fill="white"/>
</g>
</g>
<defs>
<linearGradient id="paint0_linear_266_29233" x1="0.333496" y1="2.8584" x2="0.333496" y2="10.0013" gradientUnits="userSpaceOnUse">
<stop stop-color="white"/>
<stop offset="1" stop-color="#F0F0F0"/>
</linearGradient>
<linearGradient id="paint1_linear_266_29233" x1="0.333496" y1="2.8584" x2="0.333496" y2="9.52506" gradientUnits="userSpaceOnUse">
<stop stop-color="#FF2E3B"/>
<stop offset="1" stop-color="#FC0D1B"/>
</linearGradient>
<clipPath id="clip0_266_29233">
<rect width="20" height="20" fill="white" transform="translate(0.333496)"/>
</clipPath>
</defs>
</svg>
