<svg width="80" height="80" viewBox="0 0 80 80" fill="none" xmlns="http://www.w3.org/2000/svg">
<path d="M40 68C55.464 68 68 55.464 68 40C68 24.536 55.464 12 40 12C24.536 12 12 24.536 12 40C12 55.464 24.536 68 40 68Z" fill="#D1D5DB"/>
<path d="M40.0007 67.9998C50.31 67.9998 58.6673 59.6425 58.6673 49.3332C58.6673 39.0239 50.31 30.6665 40.0007 30.6665C29.6913 30.6665 21.334 39.0239 21.334 49.3332C21.334 59.6425 29.6913 67.9998 40.0007 67.9998Z" fill="white"/>
<path d="M39.9994 68.0001C45.154 68.0001 49.3327 63.8215 49.3327 58.6668C49.3327 53.5122 45.154 49.3335 39.9994 49.3335C34.8447 49.3335 30.666 53.5122 30.666 58.6668C30.666 63.8215 34.8447 68.0001 39.9994 68.0001Z" fill="#9CA3AF"/>
</svg>
