<svg width="80" height="80" viewBox="0 0 80 80" fill="none" xmlns="http://www.w3.org/2000/svg">
<path d="M40 12C55.464 12 68 24.536 68 40C68 55.464 55.464 68 40 68C24.536 68 12 55.464 12 40C12 24.536 24.536 12 40 12Z" fill="#D1D5DB"/>
<path d="M40.0007 21.3332C50.31 21.3332 58.6673 29.6905 58.6673 39.9998C58.6673 50.3092 50.31 58.6665 40.0007 58.6665C29.6913 58.6665 21.334 50.3092 21.334 39.9998C21.334 29.6905 29.6913 21.3332 40.0007 21.3332Z" fill="white"/>
<path d="M39.9994 30.6668C45.154 30.6668 49.3327 34.8455 49.3327 40.0002C49.3327 45.1548 45.154 49.3335 39.9994 49.3335C34.8447 49.3335 30.666 45.1548 30.666 40.0002C30.666 34.8455 34.8447 30.6668 39.9994 30.6668Z" fill="#9CA3AF"/>
</svg>
