<svg width="80" height="80" viewBox="0 0 80 80" fill="none" xmlns="http://www.w3.org/2000/svg">
<path d="M43.1105 30.6668H36.8882C33.466 30.6668 30.666 33.4668 30.666 36.8891V43.1113C30.666 46.5335 33.466 49.3335 36.8882 49.3335H43.1105C46.5327 49.3335 49.3327 46.5335 49.3327 43.1113V36.8891C49.3327 33.4668 46.5327 30.6668 43.1105 30.6668Z" fill="#9CA3AF"/>
<path d="M61.7784 49.3333H55.5562C52.134 49.3333 49.334 52.1333 49.334 55.5555V61.7778C49.334 65.2 52.134 68 55.5562 68H61.7784C65.2006 68 68.0006 65.2 68.0006 61.7778V55.5555C68.0006 52.1333 65.2006 49.3333 61.7784 49.3333Z" fill="#9CA3AF"/>
<path d="M24.4444 30.6665H18.2222C14.8 30.6665 12 27.8665 12 24.4443V18.2221C12 14.7998 14.8 11.9998 18.2222 11.9998H24.4444C27.8667 11.9998 30.6667 14.7998 30.6667 18.2221V24.4443C30.6667 27.8665 27.8667 30.6665 24.4444 30.6665Z" fill="#9CA3AF"/>
<path d="M49.334 18.2221V24.4443C49.334 27.8665 52.134 30.6665 55.5562 30.6665H61.7784C65.2006 30.6665 68.0006 27.8665 68.0006 24.4443V18.2221C68.0006 14.7998 65.2006 11.9998 61.7784 11.9998H55.5562C52.134 11.9998 49.334 14.7998 49.334 18.2221Z" fill="#9CA3AF"/>
<path d="M30.6667 55.5555V61.7778C30.6667 65.2 27.8667 68 24.4444 68H18.2222C14.8 68 12 65.2 12 61.7778V55.5555C12 52.1333 14.8 49.3333 18.2222 49.3333H24.4444C27.8667 49.3333 30.6667 52.1333 30.6667 55.5555Z" fill="#9CA3AF"/>
<path d="M24.4446 49.3334C27.8668 49.3334 30.6668 52.1334 30.6668 55.5557C30.6668 52.1334 33.4668 49.3334 36.889 49.3334C33.4668 49.3334 30.6668 46.5334 30.6668 43.1112C30.6668 46.5334 27.8668 49.3334 24.4446 49.3334Z" fill="#9CA3AF"/>
<path d="M43.1108 49.3334C46.5331 49.3334 49.3331 52.1334 49.3331 55.5557C49.3331 52.1334 52.1331 49.3334 55.5553 49.3334C52.1331 49.3334 49.3331 46.5334 49.3331 43.1112C49.3331 46.5334 46.5331 49.3334 43.1108 49.3334Z" fill="#9CA3AF"/>
<path d="M24.4446 30.6664C27.8668 30.6664 30.6668 33.4664 30.6668 36.8887C30.6668 33.4664 33.4668 30.6664 36.889 30.6664C33.4668 30.6664 30.6668 27.8664 30.6668 24.4442C30.6668 27.8664 27.8668 30.6664 24.4446 30.6664Z" fill="#9CA3AF"/>
<path d="M43.1108 30.6664C46.5331 30.6664 49.3331 33.4664 49.3331 36.8887C49.3331 33.4664 52.1331 30.6664 55.5553 30.6664C52.1331 30.6664 49.3331 27.8664 49.3331 24.4442C49.3331 27.8664 46.5331 30.6664 43.1108 30.6664Z" fill="#9CA3AF"/>
</svg>
