<?xml version="1.0" encoding="UTF-8" standalone="no"?>
<svg
   xmlns:dc="http://purl.org/dc/elements/1.1/"
   xmlns:cc="http://creativecommons.org/ns#"
   xmlns:rdf="http://www.w3.org/1999/02/22-rdf-syntax-ns#"
   xmlns:svg="http://www.w3.org/2000/svg"
   xmlns="http://www.w3.org/2000/svg"
   xmlns:sodipodi="http://sodipodi.sourceforge.net/DTD/sodipodi-0.dtd"
   xmlns:inkscape="http://www.inkscape.org/namespaces/inkscape"
   width="529.16669mm"
   height="131.84138mm"
   viewBox="0 0 529.16669 131.84138"
   version="1.1"
   id="svg5632"
   inkscape:version="1.0.1 (3bc2e813f5, 2020-09-07)"
   sodipodi:docname="Profeed Logo Vector (SVG) - Full Black.svg">
  <defs
     id="defs5626" />
  <sodipodi:namedview
     id="base"
     pagecolor="#a0a0a0"
     bordercolor="#666666"
     borderopacity="1.0"
     inkscape:pageopacity="0"
     inkscape:pageshadow="2"
     inkscape:zoom="0.35"
     inkscape:cx="935.29742"
     inkscape:cy="273.72927"
     inkscape:document-units="mm"
     inkscape:current-layer="layer1"
     inkscape:document-rotation="0"
     showgrid="false"
     fit-margin-top="0"
     fit-margin-left="0"
     fit-margin-right="0"
     fit-margin-bottom="0"
     inkscape:window-width="1366"
     inkscape:window-height="705"
     inkscape:window-x="1016"
     inkscape:window-y="-8"
     inkscape:window-maximized="1" />
  <metadata
     id="metadata5629">
    <rdf:RDF>
      <cc:Work
         rdf:about="">
        <dc:format>image/svg+xml</dc:format>
        <dc:type
           rdf:resource="http://purl.org/dc/dcmitype/StillImage" />
        <dc:title></dc:title>
      </cc:Work>
    </rdf:RDF>
  </metadata>
  <g
     inkscape:label="Layer 1"
     inkscape:groupmode="layer"
     id="layer1"
     transform="translate(141.63078,-75.742464)">
    <path
       d="m 113.51623,133.80392 q -2.23762,-0.36642 -4.84788,-0.36642 -9.69843,0 -13.162474,8.25865 v 40.91867 h -9.854959 v -57.64871 h 9.588152 l 0.160085,6.65995 q 4.850546,-7.72504 13.746786,-7.72504 2.87973,0 4.36941,0.74973 z"
       style="font-style:normal;font-variant:normal;font-weight:normal;font-stretch:normal;font-size:90.1489px;line-height:1.25;font-family:Roboto;-inkscape-font-specification:Roboto;text-align:center;letter-spacing:0px;word-spacing:0px;text-anchor:middle;fill:#1a1a1a;fill-opacity:1;stroke-width:0.050832"
       id="path24483" />
    <path
       d="m 118.89684,153.25156 q 0,-8.47218 3.30307,-15.23885 3.35821,-6.76587 9.27065,-10.44256 5.96847,-3.67589 13.5867,-3.67589 11.77597,0 19.02156,8.15193 7.29984,8.15113 7.29984,21.68447 v 0.69281 q 0,8.41838 -3.24971,15.13124 -3.19635,6.66075 -9.21907,10.38955 -5.96492,3.7305 -13.74323,3.7305 -11.72438,0 -19.02155,-8.15193 -7.24826,-8.15273 -7.24826,-21.57935 z m 9.90921,1.17182 q 0,9.59011 4.42455,15.39769 4.47524,5.80759 11.93605,5.80759 7.50884,0 11.9325,-5.8605 4.42099,-5.9152 4.42099,-16.5174 0,-9.48347 -4.52682,-15.34478 -4.47525,-5.91351 -11.93606,-5.91351 -7.29717,0 -11.77597,5.8075 -4.47524,5.80679 -4.47524,16.62341 z"
       style="font-style:normal;font-variant:normal;font-weight:normal;font-stretch:normal;font-size:90.1489px;line-height:1.25;font-family:Roboto;-inkscape-font-specification:Roboto;text-align:center;letter-spacing:0px;word-spacing:0px;text-anchor:middle;fill:#1a1a1a;fill-opacity:1;stroke-width:0.050832"
       id="path24485" />
    <g
       id="g24495"
       style="fill:#1a1a1a;fill-opacity:1;stroke-width:0.0581398"
       transform="matrix(12.346147,0,0,12.346147,-9588.181,-2724.9791)">
      <path
         d="m 791.71132,235.50571 v -3.75453 h -0.69479 v -0.9149 h 0.69479 v -0.39706 q 0,-0.78535 0.4488,-1.21694 0.45322,-0.43583 1.2645,-0.43583 0.25899,0 0.63446,0.0863 l -0.013,0.96673 q -0.1555,-0.0391 -0.3799,-0.0391 -0.70337,0 -0.70337,0.66025 v 0.37545 h 0.92777 v 0.9149 h -0.92777 v 3.75451 z"
         style="font-style:normal;font-variant:normal;font-weight:bold;font-stretch:normal;font-size:90.1489px;line-height:1.25;font-family:Roboto;-inkscape-font-specification:'Roboto Bold';text-align:center;letter-spacing:0px;word-spacing:0px;text-anchor:middle;fill:#1a1a1a;fill-opacity:1;stroke-width:0.00411724"
         id="path24487" />
      <path
         d="m 796.58367,235.59207 q -1.0271,0 -1.67456,-0.63007 -0.64304,-0.63007 -0.64304,-1.67883 v -0.12079 q 0,-0.70344 0.27198,-1.25581 0.27173,-0.55669 0.76812,-0.8545 0.50055,-0.30204 1.13943,-0.30204 0.95793,0 1.50607,0.60409 0.55229,0.60419 0.55229,1.71333 v 0.50921 h -2.97339 q 0.0608,0.45743 0.36247,0.73363 0.30658,0.27618 0.77254,0.27618 0.72079,0 1.12643,-0.52216 l 0.61288,0.68621 q -0.28057,0.39698 -0.75953,0.6214 -0.47923,0.22015 -1.06169,0.22015 z m -0.14249,-3.83223 q -0.37106,0 -0.60404,0.2503 -0.22882,0.25032 -0.29357,0.71634 h 1.73489 v -0.0993 q -0.008,-0.41427 -0.2244,-0.6387 -0.21582,-0.22869 -0.61288,-0.22869 z"
         style="font-style:normal;font-variant:normal;font-weight:bold;font-stretch:normal;font-size:90.1489px;line-height:1.25;font-family:Roboto;-inkscape-font-specification:'Roboto Bold';text-align:center;letter-spacing:0px;word-spacing:0px;text-anchor:middle;fill:#1a1a1a;fill-opacity:1;stroke-width:0.00411724"
         id="path24489" />
      <path
         d="m 801.36086,235.59207 q -1.0271,0 -1.67456,-0.63007 -0.64279,-0.63007 -0.64279,-1.67883 v -0.12079 q 0,-0.70344 0.27173,-1.25581 0.27198,-0.55669 0.76812,-0.8545 0.5008,-0.30204 1.13942,-0.30204 0.9582,0 1.50607,0.60409 0.55256,0.60419 0.55256,1.71333 v 0.50921 h -2.9734 q 0.0606,0.45743 0.36248,0.73363 0.30631,0.27618 0.77227,0.27618 0.7208,0 1.12644,-0.52216 l 0.61287,0.68621 q -0.28056,0.39698 -0.75953,0.6214 -0.47896,0.22015 -1.06168,0.22015 z m -0.14224,-3.83223 q -0.37131,0 -0.60429,0.2503 -0.22857,0.25032 -0.29357,0.71634 h 1.73489 v -0.0993 q -0.008,-0.41427 -0.22441,-0.6387 -0.21556,-0.22869 -0.61262,-0.22869 z"
         style="font-style:normal;font-variant:normal;font-weight:bold;font-stretch:normal;font-size:90.1489px;line-height:1.25;font-family:Roboto;-inkscape-font-specification:'Roboto Bold';text-align:center;letter-spacing:0px;word-spacing:0px;text-anchor:middle;fill:#1a1a1a;fill-opacity:1;stroke-width:0.00411724"
         id="path24491" />
      <path
         d="m 803.79496,233.13651 q 0,-1.09184 0.48754,-1.7392 0.49197,-0.64728 1.34225,-0.64728 0.68179,0 1.12617,0.50918 v -2.38217 h 1.25151 v 6.62867 h -1.12617 l -0.0608,-0.49631 q -0.46597,0.58267 -1.19976,0.58267 -0.82428,0 -1.32483,-0.64739 -0.49613,-0.6516 -0.49613,-1.80817 z m 1.24708,0.0906 q 0,0.65591 0.22882,1.00549 0.22856,0.34955 0.66462,0.34955 0.5783,0 0.81544,-0.48765 v -1.8427 q -0.23298,-0.48764 -0.80685,-0.48764 -0.90203,0 -0.90203,1.46295 z"
         style="font-style:normal;font-variant:normal;font-weight:bold;font-stretch:normal;font-size:90.1489px;line-height:1.25;font-family:Roboto;-inkscape-font-specification:'Roboto Bold';text-align:center;letter-spacing:0px;word-spacing:0px;text-anchor:middle;fill:#1a1a1a;fill-opacity:1;stroke-width:0.00411724"
         id="path24493" />
    </g>
    <g
       id="g24505"
       transform="matrix(8.0919183,0,0,8.0919183,-2617.3845,-208.51517)"
       style="fill:#1a1a1a;fill-opacity:1;stroke-width:0.0581398">
      <path
         id="path24497"
         style="color:#000000;font-style:normal;font-variant:normal;font-weight:normal;font-stretch:normal;font-size:medium;line-height:normal;font-family:sans-serif;font-variant-ligatures:normal;font-variant-position:normal;font-variant-caps:normal;font-variant-numeric:normal;font-variant-alternates:normal;font-variant-east-asian:normal;font-feature-settings:normal;font-variation-settings:normal;text-indent:0;text-align:start;text-decoration:none;text-decoration-line:none;text-decoration-style:solid;text-decoration-color:#000000;letter-spacing:normal;word-spacing:normal;text-transform:none;writing-mode:lr-tb;direction:ltr;text-orientation:mixed;dominant-baseline:auto;baseline-shift:baseline;text-anchor:start;white-space:normal;shape-padding:0;shape-margin:0;inline-size:0;clip-rule:nonzero;display:inline;overflow:visible;visibility:visible;isolation:auto;mix-blend-mode:normal;color-interpolation:sRGB;color-interpolation-filters:linearRGB;solid-color:#000000;solid-opacity:1;vector-effect:none;fill:#1a1a1a;fill-opacity:1;fill-rule:nonzero;stroke:none;stroke-width:0.112787;stroke-linecap:square;stroke-linejoin:round;stroke-miterlimit:4;stroke-dasharray:none;stroke-dashoffset:0;stroke-opacity:1;paint-order:stroke fill markers;color-rendering:auto;image-rendering:auto;shape-rendering:auto;text-rendering:auto;enable-background:accumulate;stop-color:#000000"
         d="m 313.97943,35.128585 c -0.80377,0 -1.60755,0.303816 -2.21495,0.911409 l -4.89922,4.899186 c -1.21519,1.215186 -1.21519,3.214628 0,4.429814 l 1.62739,1.627389 1.3715,-1.371617 -1.62739,-1.627388 c -0.47886,-0.479013 -0.47846,-1.207291 0,-1.686264 l 4.89962,-4.899225 c 0.47885,-0.478973 1.20685,-0.479172 1.6861,0 v 0 l 4.37078,4.370661 1.3715,-1.371617 -4.37038,-4.37078 c -0.60779,-0.607593 -1.41157,-0.911409 -2.21495,-0.911409 z m 7.78822,6.822853 -2.04554,2.045384 c 0,0 0,0 0,0 l -2.86043,2.860745 -2.0388,2.038441 c -0.47925,0.478933 -1.20725,0.478933 -1.6861,0 l -1.90034,-1.900141 -1.3719,1.371696 1.90034,1.900141 c 1.21519,1.215186 3.21431,1.215225 4.42989,0 l 4.89923,-4.899265 c 0.91724,-0.917241 1.14139,-2.281161 0.67405,-3.417517 z" />
      <path
         style="color:#000000;font-style:normal;font-variant:normal;font-weight:normal;font-stretch:normal;font-size:medium;line-height:normal;font-family:sans-serif;font-variant-ligatures:normal;font-variant-position:normal;font-variant-caps:normal;font-variant-numeric:normal;font-variant-alternates:normal;font-variant-east-asian:normal;font-feature-settings:normal;font-variation-settings:normal;text-indent:0;text-align:start;text-decoration:none;text-decoration-line:none;text-decoration-style:solid;text-decoration-color:#000000;letter-spacing:normal;word-spacing:normal;text-transform:none;writing-mode:lr-tb;direction:ltr;text-orientation:mixed;dominant-baseline:auto;baseline-shift:baseline;text-anchor:start;white-space:normal;shape-padding:0;shape-margin:0;inline-size:0;clip-rule:nonzero;display:inline;overflow:visible;visibility:visible;isolation:auto;mix-blend-mode:normal;color-interpolation:sRGB;color-interpolation-filters:linearRGB;solid-color:#000000;solid-opacity:1;vector-effect:none;fill:#1a1a1a;fill-opacity:1;fill-rule:nonzero;stroke:none;stroke-width:0.118561;stroke-linecap:butt;stroke-linejoin:miter;stroke-miterlimit:4;stroke-dasharray:none;stroke-dashoffset:0;stroke-opacity:1;color-rendering:auto;image-rendering:auto;shape-rendering:auto;text-rendering:auto;enable-background:accumulate;stop-color:#000000"
         d="m 319.19287,39.039515 -8.75267,8.752947 1.3715,1.371696 8.75346,-8.753463 z"
         id="path24499" />
      <path
         style="color:#000000;font-style:normal;font-variant:normal;font-weight:normal;font-stretch:normal;font-size:medium;line-height:normal;font-family:sans-serif;font-variant-ligatures:normal;font-variant-position:normal;font-variant-caps:normal;font-variant-numeric:normal;font-variant-alternates:normal;font-variant-east-asian:normal;font-feature-settings:normal;font-variation-settings:normal;text-indent:0;text-align:start;text-decoration:none;text-decoration-line:none;text-decoration-style:solid;text-decoration-color:#000000;letter-spacing:normal;word-spacing:normal;text-transform:none;writing-mode:lr-tb;direction:ltr;text-orientation:mixed;dominant-baseline:auto;baseline-shift:baseline;text-anchor:start;white-space:normal;shape-padding:0;shape-margin:0;inline-size:0;clip-rule:nonzero;display:inline;overflow:visible;visibility:visible;isolation:auto;mix-blend-mode:normal;color-interpolation:sRGB;color-interpolation-filters:linearRGB;solid-color:#000000;solid-opacity:1;vector-effect:none;fill:#1a1a1a;fill-opacity:1;fill-rule:nonzero;stroke:none;stroke-width:0.118561;stroke-linecap:butt;stroke-linejoin:miter;stroke-miterlimit:4;stroke-dasharray:none;stroke-dashoffset:0;stroke-opacity:1;color-rendering:auto;image-rendering:auto;shape-rendering:auto;text-rendering:auto;enable-background:accumulate;stop-color:#000000"
         d="m 308.7648,39.039515 8.75307,8.752947 -1.3715,1.371696 -8.75346,-8.753463 z"
         id="path24501" />
      <path
         style="color:#000000;font-style:normal;font-variant:normal;font-weight:normal;font-stretch:normal;font-size:medium;line-height:normal;font-family:sans-serif;font-variant-ligatures:normal;font-variant-position:normal;font-variant-caps:normal;font-variant-numeric:normal;font-variant-alternates:normal;font-variant-east-asian:normal;font-feature-settings:normal;font-variation-settings:normal;text-indent:0;text-align:start;text-decoration:none;text-decoration-line:none;text-decoration-style:solid;text-decoration-color:#000000;letter-spacing:normal;word-spacing:normal;text-transform:none;writing-mode:lr-tb;direction:ltr;text-orientation:mixed;dominant-baseline:auto;baseline-shift:baseline;text-anchor:start;white-space:normal;shape-padding:0;shape-margin:0;inline-size:0;clip-rule:nonzero;display:inline;overflow:visible;visibility:visible;isolation:auto;mix-blend-mode:normal;color-interpolation:sRGB;color-interpolation-filters:linearRGB;solid-color:#000000;solid-opacity:1;vector-effect:none;fill:#1a1a1a;fill-opacity:1;fill-rule:nonzero;stroke:none;stroke-width:0.0700322;stroke-linecap:butt;stroke-linejoin:miter;stroke-miterlimit:4;stroke-dasharray:none;stroke-dashoffset:0;stroke-opacity:1;color-rendering:auto;image-rendering:auto;shape-rendering:auto;text-rendering:auto;enable-background:accumulate;stop-color:#000000"
         d="m 311.23644,46.995867 -3.05404,3.053953 1.3719,1.371735 3.05403,-3.05427 z"
         id="path24503" />
    </g>
    <path
       d="m 28.587137,152.23867 v 30.37019 H 18.35598 v -77.57634 h 28.614156 q 12.734695,0 19.926032,6.50022 7.245587,6.50022 7.245587,17.20923 0,11.29571 -7.085503,17.42267 -7.033921,6.07403 -20.192839,6.07403 z m 0,-8.36546 h 18.382999 q 8.204313,0 12.573722,-3.83553 4.369408,-3.89022 4.369408,-11.18899 0,-6.9264 -4.369408,-11.08138 -4.369409,-4.15668 -11.990304,-4.31641 H 28.587137 Z"
       style="font-style:normal;font-variant:normal;font-weight:normal;font-stretch:normal;font-size:90.1489px;line-height:1.25;font-family:Roboto;-inkscape-font-specification:Roboto;text-align:center;letter-spacing:0px;word-spacing:0px;text-anchor:middle;fill:#1a1a1a;fill-opacity:1;stroke-width:0.050832"
       id="path24507" />
  </g>
</svg>
